#!OML:ASF G:\acrobat\cartwheel_test\acrobat_wednesday\Session 1\acrobatwednesday.ASF
:FULLY-SPECIFIED
:DEGREES
39
root 10.2881 14.5666 3.26689 -121.372 89.4848 -117.732
lowerback -0.394392 -0.399691 -0.150582
upperback 1.72366 -0.522348 0.037817
thorax 1.98806 -0.259698 0.112165
lowerneck -17.5861 -13.5917 -15.054
upperneck 20.8874 -17.9573 12.3431
head 12.3636 -7.90467 3.86236
rclavicle -2.21459e-015 8.44835e-016
rhumerus 0 0 0
rradius 0
rwrist 0
rhand 0 0
rfingers 0
rthumb 0 0
lclavicle -2.21459e-015 8.44835e-016
lhumerus 0 0 0
lradius 0
lwrist 0
lhand 0 0
lfingers 0
lthumb 0 0
rfemur -17.3761 -8.6214 11.9527
rtibia 56.2768
rfoot 10.8364 14.5969
rtoes -18.8399
lfemur -19.9354 5.57555 -10.0168
ltibia 59.2076
lfoot 24.2919 5.77709
ltoes -20.4911
40
root 10.2855 14.5668 3.26913 -121.155 89.4785 -117.542
lowerback -0.433996 -0.373909 -0.0982784
upperback 1.76601 -0.488115 0.0287428
thorax 2.05317 -0.241538 0.0738419
lowerneck -17.6634 -13.5927 -15.0834
upperneck 20.8739 -17.9524 12.3936
head 12.3817 -7.89567 3.88245
rclavicle -2.19478e-015 -1.68967e-015
rhumerus 0 0 0
rradius 0
rwrist 0
rhand 0 0
rfingers 0
rthumb 0 0
lclavicle -2.19478e-015 -1.68967e-015
lhumerus 0 0 0
lradius 0
lwrist 0
lhand 0 0
lfingers 0
lthumb 0 0
rfemur -17.3124 -8.60245 11.99
rtibia 56.1141
rfoot 10.8889 14.5291
rtoes -18.6347
lfemur -19.9971 5.62331 -9.99922
ltibia 59.2499
lfoot 24.191 6.03462
ltoes -21.8115
41
root 10.2829 14.5667 3.27196 -122.491 89.4449 -118.902
lowerback -0.487712 -0.384632 -0.0680673
upperback 1.80827 -0.502833 0.0470801
thorax 2.12671 -0.248421 0.0748078
lowerneck -17.9128 -13.5818 -14.9422
upperneck 21.1255 -17.8945 12.1174
head 12.4706 -7.8737 3.76039
rclavicle -6.35762e-016 -2.33572e-015
rhumerus 0 0 0
rradius 0
rwrist 0
rhand 0 0
rfingers 0
rthumb 0 0
lclavicle -6.35762e-016 -2.33572e-015
lhumerus 0 0 0
lradius 0
lwrist 0
lhand 0 0
lfingers 0
lthumb 0 0
rfemur -17.3355 -8.6707 12.0359
rtibia 56.1535
rfoot 11.0308 14.4704
rtoes -19.3049
lfemur -20.0602 5.62652 -9.9585
ltibia 59.309
lfoot 24.152 6.28711
ltoes -22.9599
42
root 10.2798 14.5665 3.27422 -125.229 89.4013 -121.6
lowerback -0.451406 -0.408931 -0.0527413
upperback 1.79811 -0.535876 0.0663786
thorax 2.09596 -0.264846 0.0855516
lowerneck -18.1099 -13.5385 -14.6101
upperneck 21.5514 -17.7813 11.5278
head 12.5522 -7.84806 3.50927
rclavicle -1.0543e-015 -2.33572e-015
rhumerus 0 0 0
rradius 0
rwrist 0
rhand 0 0
rfingers 0
rthumb 0 0
lclavicle -1.0543e-015 -2.33572e-015
lhumerus 0 0 0
lradius 0
lwrist 0
lhand 0 0
lfingers 0
lthumb 0 0
rfemur -17.3717 -8.8078 12.0496
rtibia 56.3073
rfoot 11.1578 14.3633
rtoes -19.6451
lfemur -20.0465 5.59025 -9.91805
ltibia 59.3449
lfoot 24.1281 6.31268
ltoes -22.7542
43
root 10.2768 14.5662 3.27523 -127.94 89.4095 -124.292
lowerback -0.398706 -0.413623 -0.0498838
upperback 1.75132 -0.542331 0.0522333
thorax 2.01814 -0.268053 0.069939
lowerneck -17.9353 -13.4958 -14.5906
upperneck 21.5104 -17.7391 11.5154
head 12.4924 -7.83834 3.52033
rclavicle -1.78557e-015 1.73937e-015
rhumerus 0 0 0
rradius 0
rwrist 0
rhand 0 0
rfingers 0
rthumb 0 0
lclavicle -1.78557e-015 1.73937e-015
lhumerus 0 0 0
lradius 0
lwrist 0
lhand 0 0
lfingers 0
lthumb 0 0
rfemur -17.4096 -8.90285 12.002
rtibia 56.3842
rfoot 11.1659 14.274
rtoes -19.0433
lfemur -20.0381 5.56742 -9.93855
ltibia 59.3398
lfoot 24.1049 6.02341
ltoes -21.4826
44
root 10.2733 14.5664 3.27726 -131.709 89.4483 -128.098
lowerback -0.325414 -0.428794 -0.0980401
upperback 1.68023 -0.562405 0.0440277
thorax 1.9044 -0.279007 0.0890138
lowerneck -17.6183 -13.4546 -14.7615
upperneck 21.1145 -17.7171 11.8309
head 12.3286 -7.82967 3.68203
rclavicle -3.56026e-016 2.5345e-015
rhumerus 0 0 0
rradius 0
rwrist 0
rhand 0 0
rfingers 0
rthumb 0 0
lclavicle -3.56026e-016 2.5345e-015
lhumerus 0 0 0
lradius 0
lwrist 0
lhand 0 0
lfingers 0
lthumb 0 0
rfemur -17.4656 -8.97472 11.9364
rtibia 56.391
rfoot 11.1598 14.2386
rtoes -17.9751
lfemur -20.0919 5.57811 -9.99138
ltibia 59.3051
lfoot 24.1229 5.73956
ltoes -20.3547
45
root 10.27 14.5672 3.27893 -140.119 89.4955 -136.508
lowerback -0.269946 -0.437122 -0.172439
upperback 1.6825 -0.572277 0.033706
thorax 1.87623 -0.284929 0.120375
lowerneck -17.5908 -13.4396 -14.7833
upperneck 20.9622 -17.6859 11.8672
head 12.2657 -7.81903 3.7059
rclavicle 4.21544e-015 -2.5345e-015
rhumerus 0 0 0
rradius 0
rwrist 0
rhand 0 0
rfingers 0
rthumb 0 0
lclavicle 4.21544e-015 -2.5345e-015
lhumerus 0 0 0
lradius 0
lwrist 0
lhand 0 0
lfingers 0
lthumb 0 0
rfemur -17.4688 -9.04433 11.8248
rtibia 56.3765
rfoot 11.1825 14.2371
rtoes -18.0585
lfemur -20.1017 5.57845 -10.0842
ltibia 59.2703
lfoot 24.1218 5.7609
ltoes -20.2582
46
root 10.2677 14.5684 3.28003 -149.727 89.5386 -146.073
lowerback -0.275177 -0.421815 -0.241457
upperback 1.73798 -0.550057 0.0205323
thorax 1.93657 -0.274622 0.145669
lowerneck -17.6498 -13.4345 -14.8167
upperneck 20.9804 -17.6689 11.8888
head 12.2876 -7.80846 3.71952
rclavicle -3.13649e-015 1.14301e-015
rhumerus 0 0 0
rradius 0
rwrist 0
rhand 0 0
rfingers 0
rthumb 0 0
lclavicle -3.13649e-015 1.14301e-015
lhumerus 0 0 0
lradius 0
lwrist 0
lhand 0 0
lfingers 0
lthumb 0 0
rfemur -17.4248 -9.06805 11.7129
rtibia 56.3731
rfoot 11.2122 14.2942
rtoes -18.7898
lfemur -20.045 5.5998 -10.1756
ltibia 59.2337
lfoot 24.0046 6.12005
ltoes -21.5636
47
root 10.2659 14.569 3.28364 -151.879 89.5589 -148.184
lowerback -0.255561 -0.43012 -0.29232
upperback 1.7466 -0.560845 0.0491103
thorax 1.93525 -0.281019 0.20334
lowerneck -17.569 -13.3844 -14.8815
upperneck 20.9415 -17.5944 11.9277
head 12.257 -7.78093 3.76377
rclavicle -6.2357e-015 -5.71506e-016
rhumerus 0 0 0
rradius 0
rwrist 0
rhand 0 0
rfingers 0
rthumb 0 0
lclavicle -6.2357e-015 -5.71506e-016
lhumerus 0 0 0
lradius 0
lwrist 0
lhand 0 0
lfingers 0
lthumb 0 0
rfemur -17.3762 -9.02894 11.6918
rtibia 56.352
rfoot 11.0764 14.4286
rtoes -19.614
lfemur -19.9925 5.66194 -10.1682
ltibia 59.2028
lfoot 23.9144 6.32901
ltoes -22.331
48
root 10.2634 14.5694 3.28722 -147.414 89.5562 -143.708
lowerback -0.234091 -0.440634 -0.270525
upperback 1.77243 -0.575566 0.0932558
thorax 1.95003 -0.288305 0.236117
lowerneck -17.899 -13.3406 -14.8977
upperneck 21.3004 -17.5032 11.8622
head 12.441 -7.72541 3.74757
rclavicle -2.12422e-015 -3.2054e-015
rhumerus 0 0 0
rradius 0
rwrist 0
rhand 0 0
rfingers 0
rthumb 0 0
lclavicle -2.12422e-015 -3.2054e-015
lhumerus 0 0 0
lradius 0
lwrist 0
lhand 0 0
lfingers 0
lthumb 0 0
rfemur -17.3482 -9.00657 11.7302
rtibia 56.2568
rfoot 10.8839 14.4387
rtoes -20.4784
lfemur -19.9921 5.72559 -10.1012
ltibia 59.186
lfoot 23.8522 6.2183
ltoes -21.8476
49
root 10.2596 14.5702 3.28839 -147.757 89.564 -144.085
lowerback -0.274784 -0.42355 -0.218129
upperback 1.81455 -0.552817 0.0852721
thorax 2.01541 -0.275953 0.198512
lowerneck -18.5575 -13.3338 -14.9296
upperneck 22.0585 -17.4762 11.8493
head 12.8678 -7.66699 3.72736
rclavicle 3.64374e-016 -1.66482e-015
rhumerus 0 0 0
rradius 0
rwrist 0
rhand 0 0
rfingers 0
rthumb 0 0
lclavicle 3.64374e-016 -1.66482e-015
lhumerus 0 0 0
lradius 0
lwrist 0
lhand 0 0
lfingers 0
lthumb 0 0
rfemur -17.4064 -9.06265 11.7327
rtibia 56.2258
rfoot 10.9588 14.2529
rtoes -20.3833
lfemur -20.0571 5.75689 -10.1046
ltibia 59.1979
lfoot 23.8687 5.89812
ltoes -20.5924
50
root 10.2558 14.5702 3.29103 -150.946 89.5825 -147.299
lowerback -0.297865 -0.423081 -0.221424
upperback 1.8517 -0.551571 0.0782939
thorax 2.06649 -0.275239 0.192881
lowerneck -18.9195 -13.3283 -14.9939
upperneck 22.4457 -17.4637 11.9184
head 13.1086 -7.63113 3.75263
rclavicle 1.32954e-015 -3.97569e-016
rhumerus 0 0 0
rradius 0
rwrist 0
rhand 0 0
rfingers 0
rthumb 0 0
lclavicle 1.32954e-015 -3.97569e-016
lhumerus 0 0 0
lradius 0
lwrist 0
lhand 0 0
lfingers 0
lthumb 0 0
rfemur -17.468 -9.09861 11.7115
rtibia 56.2292
rfoot 10.9453 14.2256
rtoes -19.3131
lfemur -20.1082 5.80637 -10.1226
ltibia 59.2173
lfoot 23.9508 5.69202
ltoes -20.0289
51
root 10.2525 14.5703 3.29491 -146.73 89.5977 -143.072
lowerback -0.270294 -0.433039 -0.222615
upperback 1.87762 -0.565042 0.10982
thorax 2.07802 -0.28215 0.22567
lowerneck -19.0057 -13.3123 -15.0118
upperneck 22.4719 -17.4262 11.9192
head 13.1322 -7.61184 3.76019
rclavicle -6.15036e-015 -6.7711e-016
rhumerus 0 0 0
rradius 0
rwrist 0
rhand 0 0
rfingers 0
rthumb 0 0
lclavicle -6.15036e-015 -6.7711e-016
lhumerus 0 0 0
lradius 0
lwrist 0
lhand 0 0
lfingers 0
lthumb 0 0
rfemur -17.4609 -9.07553 11.7402
rtibia 56.1671
rfoot 10.829 14.2959
rtoes -18.649
lfemur -20.0947 5.89948 -10.0609
ltibia 59.1826
lfoot 23.893 5.74181
ltoes -20.4954
52
root 10.2494 14.5708 3.29737 -137.797 89.5646 -134.12
lowerback -0.232909 -0.429925 -0.138678
upperback 1.87029 -0.562605 0.14173
thorax 2.04896 -0.279746 0.211731
lowerneck -18.9598 -13.3086 -14.985
upperneck 22.4724 -17.4176 11.8613
head 13.1121 -7.61509 3.73814
rclavicle -3.30938e-015 -1.82944e-015
rhumerus 0 0 0
rradius 0
rwrist 0
rhand 0 0
rfingers 0
rthumb 0 0
lclavicle -3.30938e-015 -1.82944e-015
lhumerus 0 0 0
lradius 0
lwrist 0
lhand 0 0
lfingers 0
lthumb 0 0
rfemur -17.4545 -9.0585 11.8396
rtibia 56.1557
rfoot 10.9111 14.2536
rtoes -18.8374
lfemur -20.065 5.96237 -9.93193
ltibia 59.1273
lfoot 23.8101 5.67424
ltoes -20.1761
53
root 10.2464 14.5701 3.29817 -134.966 89.5363 -131.263
lowerback -0.166896 -0.416203 -0.0677625
upperback 1.86087 -0.545435 0.159583
thorax 2.00159 -0.270063 0.191201
lowerneck -18.8657 -13.2974 -15.0152
upperneck 22.4168 -17.4091 11.8988
head 13.0775 -7.61491 3.76303
rclavicle -1.41737e-016 1.72384e-015
rhumerus 0 0 0
rradius 0
rwrist 0
rhand 0 0
rfingers 0
rthumb 0 0
lclavicle -1.41737e-016 1.72384e-015
lhumerus 0 0 0
lradius 0
lwrist 0
lhand 0 0
lfingers 0
lthumb 0 0
rfemur -17.4659 -9.06618 11.8829
rtibia 56.1992
rfoot 10.9343 14.2529
rtoes -18.6113
lfemur -20.0447 6.00378 -9.86166
ltibia 59.1043
lfoot 23.7429 5.74523
ltoes -20.2208
